# xmcd
#
# Track frame offsets: 
#        150
#        26868
#        48490
#        49923
#        69937
#        85748
#        98255
#        120483
#        128103
#        152815
#        175243
#        186090
#
# Disc length: 2730 seconds
#
# Revision: 4
# Processed by: cddbd v1.5.2PL0 Copyright (c) Steve Scherf et al.
# Submitted via: ExactAudioCopy v0.99pb4
#
DISCID=950aa80c
DTITLE=Blues Section - Blues Section
DYEAR=1900
DGENRE=Blues
TTITLE0=Paint It Michael and Others, Maybe
TTITLE1=Answer To Life
TTITLE2=The Day The Bird of Paradise...
TTITLE3=Wolf At The Door
TTITLE4=End Of A Poem
TTITLE5=Please Mr. Wilson
TTITLE6=Once More For The Road
TTITLE7=The East Is Red
TTITLE8=Carpets And Bags And Balls
TTITLE9=Apartment 51
TTITLE10=Call Me On Your Telephone
TTITLE11=Hey Hey Hey
EXTD=
EXTT0=
EXTT1=
EXTT2=
EXTT3=
EXTT4=
EXTT5=
EXTT6=
EXTT7=
EXTT8=
EXTT9=
EXTT10=
EXTT11=
PLAYORDER=
